<?xml version="1.0" encoding="UTF-8" standalone="no"?>
<!DOCTYPE svg PUBLIC "-//W3C//DTD SVG 1.1//EN" "http://www.w3.org/Graphics/SVG/1.1/DTD/svg11.dtd">
<svg width="100%" height="100%" viewBox="0 0 957 244" version="1.1" xmlns="http://www.w3.org/2000/svg" xmlns:xlink="http://www.w3.org/1999/xlink" xml:space="preserve" xmlns:serif="http://www.serif.com/" style="fill-rule:evenodd;clip-rule:evenodd;stroke-linejoin:round;stroke-miterlimit:2;">
    <g transform="matrix(1,0,0,1,-481.523,-2.13163e-14)">
        <g transform="matrix(-5.10506e-17,0.83372,0.83372,5.10506e-17,400.61,-99.9605)">
            <g transform="matrix(-4.9333e-16,2.68556,-2.68556,-4.9333e-16,480.119,2.32524)">
                <path d="M248.978,39.838L247.29,39.838L241.462,34.011L229.897,45.577L228.218,45.577L241.462,32.332L248.978,39.838Z" style="fill:rgb(160,160,160);"/>
            </g>
            <g transform="matrix(-4.9333e-16,2.68556,-2.68556,-4.9333e-16,480.119,2.32524)">
                <path d="M269.729,45.577L268.049,45.577L256.484,34.011L250.657,39.838L248.978,39.838L256.484,32.332L269.729,45.577Z" style="fill:rgb(160,160,160);"/>
            </g>
            <g transform="matrix(-4.9333e-16,2.68556,-2.68556,-4.9333e-16,480.119,2.32524)">
                <path d="M244.951,31.107L248.938,35.095L252.995,31.038L249.008,27.051L244.951,31.107ZM248.938,36.792L243.254,31.107L249.008,25.353L254.692,31.038L248.938,36.792Z" style="fill:rgb(160,160,160);"/>
            </g>
            <g transform="matrix(-4.9333e-16,2.68556,-2.68556,-4.9333e-16,480.119,2.32524)">
                <path d="M224.326,45.667L168.421,45.667L168.421,43.468L223.414,43.468L235.91,30.973L237.465,32.527L224.326,45.667Z" style="fill:rgb(160,160,160);"/>
            </g>
            <g transform="matrix(-4.9333e-16,2.68556,-2.68556,-4.9333e-16,480.119,2.32524)">
                <path d="M329.525,45.667L273.62,45.667L260.48,32.527L262.036,30.973L274.532,43.468L329.525,43.468L329.525,45.667Z" style="fill:rgb(160,160,160);"/>
            </g>
            <g transform="matrix(-3.07232e-16,5.72477,-2.68556,-1.23772e-15,480.119,-754.355)">
                <rect x="168.421" y="39.234" width="161.104" height="1.2" style="fill:rgb(160,160,160);"/>
            </g>
            <g transform="matrix(-4.9333e-16,2.68556,-2.68556,-4.9333e-16,480.119,2.32524)">
                <rect x="235.9" y="44.473" width="26.145" height="1.199" style="fill:rgb(160,160,160);"/>
            </g>
        </g>
        <g transform="matrix(5.10506e-17,-0.83372,-0.83372,-5.10506e-17,1519.39,343.519)">
            <g transform="matrix(-4.9333e-16,2.68556,-2.68556,-4.9333e-16,480.119,2.32524)">
                <path d="M248.978,39.838L247.29,39.838L241.462,34.011L229.897,45.577L228.218,45.577L241.462,32.332L248.978,39.838Z" style="fill:rgb(160,160,160);"/>
            </g>
            <g transform="matrix(-4.9333e-16,2.68556,-2.68556,-4.9333e-16,480.119,2.32524)">
                <path d="M269.729,45.577L268.049,45.577L256.484,34.011L250.657,39.838L248.978,39.838L256.484,32.332L269.729,45.577Z" style="fill:rgb(160,160,160);"/>
            </g>
            <g transform="matrix(-4.9333e-16,2.68556,-2.68556,-4.9333e-16,480.119,2.32524)">
                <path d="M244.951,31.107L248.938,35.095L252.995,31.038L249.008,27.051L244.951,31.107ZM248.938,36.792L243.254,31.107L249.008,25.353L254.692,31.038L248.938,36.792Z" style="fill:rgb(160,160,160);"/>
            </g>
            <g transform="matrix(-4.9333e-16,2.68556,-2.68556,-4.9333e-16,480.119,2.32524)">
                <path d="M224.326,45.667L168.421,45.667L168.421,43.468L223.414,43.468L235.91,30.973L237.465,32.527L224.326,45.667Z" style="fill:rgb(160,160,160);"/>
            </g>
            <g transform="matrix(-4.9333e-16,2.68556,-2.68556,-4.9333e-16,480.119,2.32524)">
                <path d="M329.525,45.667L273.62,45.667L260.48,32.527L262.036,30.973L274.532,43.468L329.525,43.468L329.525,45.667Z" style="fill:rgb(160,160,160);"/>
            </g>
            <g transform="matrix(-2.21513e-16,7.12467,-2.68556,-1.5806e-15,480.119,-1102.89)">
                <rect x="168.421" y="39.234" width="161.104" height="1.2" style="fill:rgb(160,160,160);"/>
            </g>
            <g transform="matrix(-4.9333e-16,2.68556,-2.68556,-4.9333e-16,480.119,2.32524)">
                <rect x="235.9" y="44.473" width="26.145" height="1.199" style="fill:rgb(160,160,160);"/>
            </g>
        </g>
    </g>
</svg>
