<?xml version="1.0" encoding="UTF-8" standalone="no"?>
<!DOCTYPE svg PUBLIC "-//W3C//DTD SVG 1.1//EN" "http://www.w3.org/Graphics/SVG/1.1/DTD/svg11.dtd">
<svg width="100%" height="100%" viewBox="0 0 813 937" version="1.1" xmlns="http://www.w3.org/2000/svg" xmlns:xlink="http://www.w3.org/1999/xlink" xml:space="preserve" xmlns:serif="http://www.serif.com/" style="fill-rule:evenodd;clip-rule:evenodd;stroke-linejoin:round;stroke-miterlimit:2;">
    <g transform="matrix(1,0,0,1,-133.567,-82.4452)">
        <g transform="matrix(3.87164,0,0,3.87164,-4116.44,-1595.46)">
            <g transform="matrix(0.507162,0,0,0.419136,1013.01,597.504)">
                <path d="M179.781,126.342L199.923,126.342L204.058,137.641L212.929,137.641L190.919,80.432L189.052,80.432L167.042,137.641L175.713,137.641L179.781,126.342ZM189.852,98.833L196.989,118.363L182.716,118.363L189.852,98.833Z" style="fill-rule:nonzero;"/>
            </g>
        </g>
        <g transform="matrix(3.87164,0,0,3.87164,-4116.44,-1595.46)">
            <g transform="matrix(0.507162,0,0,0.419136,1013.01,597.504)">
                <path d="M226.606,137.651L234.868,137.651L234.868,121.177L240.006,121.177C240.873,121.177 241.674,121.177 242.475,121.097C248.147,124.976 247.48,137.964 259.146,137.964C261.88,137.964 263.614,137.48 263.614,137.48L263.614,128.612L261.746,128.612C256.148,128.612 255.148,122.713 251.617,119.001C257.88,115.293 260.346,106.981 260.346,101.087C260.346,89.22 254.082,80.917 241.607,80.917L226.606,80.917L226.606,137.651ZM241.007,90.107C248.814,90.107 251.417,94.87 251.417,101.087C251.417,107.304 248.747,112.31 241.007,112.31L234.868,112.31L234.868,90.107L241.007,90.107Z" style="fill-rule:nonzero;"/>
            </g>
        </g>
        <g transform="matrix(3.87164,0,0,3.87164,-4116.44,-1595.46)">
            <g transform="matrix(0.507162,0,0,0.419136,1013.01,597.504)">
                <path d="M291.962,121.177C306.105,121.177 312.302,112.955 312.302,101.087C312.302,89.22 306.038,80.917 293.563,80.917L279.229,80.917L279.229,137.641L287.491,137.641L287.491,121.177L291.962,121.177ZM292.963,90.107C300.77,90.107 303.373,94.87 303.373,101.087C303.373,107.304 300.703,112.31 292.963,112.31L287.491,112.31L287.491,90.107L292.963,90.107Z" style="fill-rule:nonzero;"/>
            </g>
        </g>
        <g transform="matrix(3.87164,0,0,3.87164,-4116.44,-1595.46)">
            <g transform="matrix(0.507162,0,0,0.419136,1013.01,597.504)">
                <path d="M327.65,137.641L358.122,137.641L358.122,128.451L335.912,128.451L335.912,114.883L356.054,114.883L356.054,106.015L335.912,106.015L335.912,90.107L358.122,90.107L358.122,80.917L327.65,80.917L327.65,137.641Z" style="fill-rule:nonzero;"/>
            </g>
        </g>
        <g transform="matrix(3.87164,0,0,3.87164,-4116.44,-1595.46)">
            <g transform="matrix(0.507162,0,0,0.419136,1013.01,597.504)">
                <path d="M375.738,137.651L384,137.651L384,102.464L413.415,138.044L415.614,138.044L415.614,80.917L407.352,80.917L407.352,117.146L378.336,80.594L375.738,80.594L375.738,137.651Z" style="fill-rule:nonzero;"/>
            </g>
        </g>
        <g transform="matrix(3.87164,0,0,3.87164,-4116.44,-1595.46)">
            <g transform="matrix(0.507162,0,0,0.419136,1013.01,597.504)">
                <path d="M429.161,90.107L444.835,90.107L444.835,137.641L453.163,137.641L453.163,90.107L468.57,90.107L468.57,80.917L429.161,80.917L429.161,90.107Z" style="fill-rule:nonzero;"/>
            </g>
        </g>
        <g transform="matrix(3.87164,0,0,3.87164,-4116.44,-1595.46)">
            <g transform="matrix(0.507162,0,0,0.419136,1013.01,597.504)">
                <path d="M477.516,109.238C477.516,126.029 488.179,138.529 502.523,138.529C516.866,138.529 527.596,125.948 527.596,109.238C527.596,92.287 517.066,79.948 502.523,79.948C488.446,79.948 477.516,92.852 477.516,109.238ZM486.445,109.4C486.445,97.776 493.316,88.977 502.589,88.977C511.996,88.977 518.734,97.776 518.734,109.4C518.734,120.943 511.662,129.742 502.589,129.742C493.516,129.742 486.445,120.782 486.445,109.4Z" style="fill-rule:nonzero;"/>
            </g>
        </g>
        <g transform="matrix(3.87164,0,0,3.87164,-4116.44,-1595.46)">
            <g transform="matrix(0.507162,0,0,0.419136,1013.01,597.504)">
                <path d="M544.012,137.651L552.274,137.651L552.274,121.177L557.412,121.177C558.279,121.177 559.08,121.177 559.881,121.097C565.553,124.976 564.885,137.964 576.552,137.964C579.285,137.964 581.019,137.48 581.019,137.48L581.019,128.612L579.152,128.612C573.553,128.612 572.554,122.713 569.022,119.001C575.286,115.293 577.751,106.981 577.751,101.087C577.751,89.22 571.488,80.917 559.013,80.917L544.012,80.917L544.012,137.651ZM558.413,90.107C566.22,90.107 568.822,94.87 568.822,101.087C568.822,107.304 566.153,112.31 558.413,112.31L552.274,112.31L552.274,90.107L558.413,90.107Z" style="fill-rule:nonzero;"/>
            </g>
        </g>
        <g transform="matrix(3.87164,0,0,3.87164,-4116.44,-1595.46)">
            <g transform="matrix(0.507162,0,0,0.419136,1013.01,597.504)">
                <path d="M319.34,177.058C319.34,173.344 317.841,170.842 312.607,168.38C309.303,166.927 308.035,165.797 308.035,163.981C308.035,162.003 309.17,160.348 311.639,160.348C313.441,160.348 315.509,161.317 316.875,162.245L318.207,157.809C316.708,156.761 314.242,155.874 311.739,155.874C306.736,155.874 303.871,159.824 303.871,164.102C303.871,167.492 305.437,170.115 310.004,172.134C314.242,174.031 315.109,175.161 315.109,177.058C315.109,178.874 313.841,180.529 311.072,180.529C308.97,180.529 306.636,179.56 304.704,177.986L303.271,182.504C305.403,184.076 308.169,185.205 310.938,185.205C316.175,185.205 319.34,182.101 319.34,177.058Z" style="fill-rule:nonzero;"/>
            </g>
        </g>
        <g transform="matrix(3.87164,0,0,3.87164,-4116.44,-1595.46)">
            <g transform="matrix(0.507162,0,0,0.419136,1013.01,597.504)">
                <path d="M324.347,160.953L332.183,160.953L332.183,184.72L336.348,184.72L336.348,160.953L344.051,160.953L344.051,156.358L324.347,156.358L324.347,160.953Z" style="fill-rule:nonzero;"/>
            </g>
        </g>
        <g transform="matrix(3.87164,0,0,3.87164,-4116.44,-1595.46)">
            <g transform="matrix(0.507162,0,0,0.419136,1013.01,597.504)">
                <path d="M350.558,172.983C350.558,181.456 354.389,185.245 360.26,185.245C366.131,185.245 370.096,181.456 370.096,172.983L370.096,156.358L365.965,156.358L365.965,172.943C365.965,178.39 363.796,180.65 360.26,180.65C356.724,180.65 354.689,178.39 354.689,172.983L354.689,156.358L350.558,156.358L350.558,172.983Z" style="fill-rule:nonzero;"/>
            </g>
        </g>
        <g transform="matrix(3.87164,0,0,3.87164,-4116.44,-1595.46)">
            <g transform="matrix(0.507162,0,0,0.419136,1013.01,597.504)">
                <path d="M379.537,184.72L388.372,184.72C395.544,184.72 400.909,178.632 400.909,170.519C400.909,162.285 395.644,156.358 388.372,156.358L379.537,156.358L379.537,184.72ZM388.405,160.953C393.109,160.953 396.478,165.03 396.478,170.6C396.478,176.129 392.942,180.125 388.405,180.125L383.702,180.125L383.702,160.953L388.405,160.953Z" style="fill-rule:nonzero;"/>
            </g>
        </g>
        <g transform="matrix(3.87164,0,0,3.87164,-4116.44,-1595.46)">
            <g transform="matrix(0.507162,0,0,0.419136,1013.01,597.504)">
                <rect x="409.15" y="156.358" width="4.131" height="28.362" style="fill-rule:nonzero;"/>
            </g>
        </g>
        <g transform="matrix(3.87164,0,0,3.87164,-4116.44,-1595.46)">
            <g transform="matrix(0.507162,0,0,0.419136,1013.01,597.504)">
                <path d="M421.489,170.519C421.489,178.914 426.821,185.164 433.993,185.164C441.164,185.164 446.529,178.874 446.529,170.519C446.529,162.043 441.264,155.874 433.993,155.874C426.954,155.874 421.489,162.326 421.489,170.519ZM425.954,170.6C425.954,164.788 429.389,160.388 434.026,160.388C438.729,160.388 442.098,164.788 442.098,170.6C442.098,176.371 438.562,180.771 434.026,180.771C429.489,180.771 425.954,176.291 425.954,170.6Z" style="fill-rule:nonzero;"/>
            </g>
        </g>
        <g transform="matrix(3.87164,0,0,3.87164,-4116.44,-1595.46)">
            <g transform="matrix(0.193346,0,0,0.193346,1113.32,423.137)">
                <path d="M296.326,720.569C284.35,714.222 272.742,707.189 261.563,699.506L265.855,652.634C247.862,638.218 231.51,621.866 217.095,603.873L170.222,608.165C159.706,592.863 150.408,576.759 142.415,560.001L169.568,521.554C161.193,500.074 155.208,477.736 151.72,454.946L108.982,435.227C107.525,416.717 107.525,398.122 108.982,379.612L151.72,359.893C155.208,337.103 161.193,314.765 169.568,293.285L142.415,254.838C150.408,238.08 159.706,221.976 170.222,206.674L217.095,210.966C231.51,192.973 247.862,176.621 265.855,162.205L261.563,115.333C276.865,104.817 292.969,95.519 309.727,87.526L348.174,114.679C369.654,106.304 391.992,100.319 414.782,96.831L434.501,54.093C453.011,52.636 471.606,52.636 490.116,54.093L509.835,96.831C532.626,100.319 554.963,106.304 576.443,114.679L614.89,87.526C631.648,95.519 647.753,104.817 663.054,115.333L658.762,162.205C676.755,176.621 693.107,192.973 707.523,210.966L754.395,206.674C764.911,221.976 774.209,238.08 782.202,254.838L755.049,293.285C763.424,314.765 769.409,337.103 772.897,359.893L815.636,379.612C817.092,398.122 817.092,416.717 815.636,435.227L772.897,454.946C769.409,477.736 763.424,500.074 755.049,521.554L782.202,560.001C774.209,576.759 764.911,592.863 754.395,608.165L707.523,603.873C693.107,621.866 676.755,638.218 658.762,652.634L663.054,699.506C651.382,707.528 639.243,714.841 626.704,721.405L626.704,634.927C697.153,583.917 743.026,500.983 743.026,407.42C743.026,252.487 617.241,126.702 462.309,126.702C307.376,126.702 181.591,252.487 181.591,407.42C181.591,500.271 226.768,582.653 296.326,633.77L296.326,720.569Z"/>
            </g>
        </g>
        <g transform="matrix(3.87164,0,0,3.87164,-4116.44,-1595.46)">
            <g transform="matrix(0.685834,0,0,0.840958,908.671,316.897)">
                <path d="M459,224.862C459,210.037 445.333,198 428.5,198C411.667,198 398,210.037 398,224.862L398,292.891L459,292.891L459,224.862Z"/>
            </g>
        </g>
        <g transform="matrix(3.87164,0,0,3.87164,-4116.44,-1595.46)">
            <g transform="matrix(0.193346,0,0,0.193346,1113.32,423.137)">
                <path d="M296.326,587.909C289.083,581.25 282.245,574.157 275.851,566.669L283.815,538.536C274.194,525.438 266.044,511.322 259.512,496.441L231.165,489.272C226.877,477.163 223.547,464.736 221.206,452.105L242.171,431.723C240.387,415.57 240.387,399.269 242.171,383.116L221.206,362.734C223.547,350.103 226.877,337.676 231.165,325.567L259.512,318.398C266.044,303.517 274.194,289.401 283.815,276.303L275.851,248.17C284.193,238.402 293.291,229.304 303.059,220.962L331.192,228.926C344.29,219.305 358.406,211.155 373.287,204.623L380.456,176.276C392.565,171.988 404.992,168.658 417.623,166.317L438.005,187.282C454.158,185.498 470.459,185.498 486.612,187.282L506.994,166.317C519.625,168.658 532.052,171.988 544.161,176.276L551.33,204.623C566.211,211.155 580.327,219.305 593.425,228.926L621.558,220.962C631.326,229.304 640.424,238.402 648.766,248.17L640.802,276.303C650.423,289.401 658.573,303.517 665.105,318.398L693.452,325.567C697.74,337.676 701.07,350.103 703.411,362.734L682.446,383.116C684.23,399.269 684.23,415.57 682.446,431.723L703.411,452.105C701.07,464.736 697.74,477.163 693.452,489.272L665.105,496.441C658.573,511.322 650.423,525.438 640.802,538.536L648.766,566.669C641.907,574.701 634.538,582.278 626.704,589.356L626.704,534.572C643.106,513.404 655.662,488.686 663.027,461.202C692.71,350.422 626.87,236.384 516.091,206.701C405.311,177.018 291.273,242.858 261.59,353.637C244.398,417.801 259.251,483.057 296.326,532.391L296.326,587.909Z"/>
            </g>
        </g>
        <g transform="matrix(3.87164,0,0,3.87164,-4116.44,-1595.46)">
            <g transform="matrix(0.193346,0,0,0.193346,1113.32,423.137)">
                <path d="M296.326,490.019L285.139,498.165C288.07,503.861 291.275,509.412 294.742,514.798L296.326,514.095L296.326,490.019ZM626.704,490.019L626.704,514.095L628.288,514.798C631.756,509.412 634.96,503.861 637.891,498.165L626.704,490.019ZM626.704,441.147L626.704,464.246L650.396,467.974C652.351,461.874 654.01,455.683 655.367,449.422L627.208,438.579C627.047,439.436 626.879,440.293 626.704,441.147ZM296.326,464.246L296.326,441.147C296.151,440.293 295.983,439.436 295.822,438.579L267.663,449.422C269.02,455.683 270.679,461.874 272.634,467.974L296.326,464.246ZM659.632,417.023C659.942,410.624 659.942,404.215 659.632,397.816L629.626,394.631C630.274,403.144 630.274,411.695 629.626,420.208L659.632,417.023ZM263.398,397.816C263.088,404.215 263.088,410.624 263.398,417.023L293.404,420.208C292.756,411.695 292.756,403.144 293.404,394.631L263.398,397.816ZM655.367,365.417C654.01,359.157 652.351,352.965 650.396,346.865L620.588,351.555C623.417,359.61 625.63,367.869 627.208,376.26L655.367,365.417ZM272.634,346.865C270.679,352.965 269.02,359.157 267.663,365.417L295.822,376.26C297.4,367.869 299.613,359.61 302.442,351.555L272.634,346.865ZM637.891,316.674C634.96,310.978 631.756,305.427 628.288,300.041L600.71,312.286C605.527,319.334 609.802,326.739 613.498,334.436L637.891,316.674ZM294.742,300.041C291.275,305.427 288.07,310.978 285.139,316.674L309.532,334.436C313.228,326.739 317.503,319.334 322.32,312.286L294.742,300.041ZM608.395,274.115C604.09,269.371 599.558,264.839 594.815,260.534L571.345,279.5C577.823,285.061 583.868,291.107 589.43,297.585L608.395,274.115ZM328.216,260.534C323.472,264.839 318.94,269.371 314.635,274.115L333.6,297.585C339.162,291.107 345.207,285.061 351.685,279.5L328.216,260.534ZM568.89,240.64C563.504,237.173 557.953,233.968 552.257,231.037L534.496,255.431C542.192,259.127 549.597,263.402 556.645,268.219L568.89,240.64ZM370.773,231.037C365.077,233.968 359.526,237.173 354.14,240.64L366.385,268.219C373.433,263.402 380.838,259.127 388.534,255.431L370.773,231.037ZM522.067,218.532C515.967,216.576 509.776,214.917 503.516,213.561L492.673,241.72C501.064,243.298 509.322,245.511 517.378,248.34L522.067,218.532ZM419.514,213.561C413.254,214.917 407.063,216.576 400.963,218.532L405.652,248.34C413.708,245.511 421.966,243.298 430.357,241.72L419.514,213.561ZM471.118,209.295C464.72,208.985 458.31,208.985 451.912,209.295L448.727,239.302C457.24,238.654 465.79,238.654 474.303,239.302L471.118,209.295Z"/>
            </g>
        </g>
        <g transform="matrix(3.87164,0,0,3.87164,-4116.44,-1595.46)">
            <g transform="matrix(0.193346,0,0,0.193346,1113.32,423.137)">
                <path d="M338.778,724.445L338.778,418.454C338.778,350.713 393.775,295.717 461.515,295.717C529.255,295.717 584.252,350.713 584.252,418.454L584.252,724.445L611.505,724.445L611.505,410.744C611.505,327.963 544.297,260.754 461.515,260.754C378.733,260.754 311.525,327.963 311.525,410.744L311.525,724.445L338.778,724.445Z"/>
            </g>
        </g>
        <g transform="matrix(3.87164,0,0,3.87164,-4116.44,-1595.46)">
            <g transform="matrix(-4.29601e-17,0.169662,-0.777778,-1.29485e-16,1405.55,511.051)">
                <rect x="398" y="198" width="61" height="126"/>
            </g>
        </g>
        <g transform="matrix(3.87164,0,0,3.87164,-4116.44,-1595.46)">
            <g transform="matrix(-5.12863e-17,0.204528,-0.912698,-1.52087e-16,1440.77,509.651)">
                <rect x="398" y="198" width="61" height="126"/>
            </g>
        </g>
        <g transform="matrix(3.87164,0,0,3.87164,-4116.44,-1595.46)">
            <g transform="matrix(-3.99439e-17,0.168228,-0.63957,-1.07222e-16,1369.48,499.098)">
                <rect x="398" y="198" width="61" height="126"/>
            </g>
        </g>
    </g>
</svg>
